<svg id="Layer_1" version="1.1" viewBox="0 0 128 128" xml:space="preserve"
  xmlns="http://www.w3.org/2000/svg" enable-background="new 0 0 128 128"><path d="m52.6 46.3-.9-14.9c0-1.8-1.5-3.2-3.2-3.2-1.8 0-3.2 1.4-3.2 3.2l-.9 14.9c-1.9 1.3-3.1 3.6-3.1 5.9 0 4 3.2 7.2 7.2 7.2.5 0 1.1-.1 1.6-.2l8.3 6.9c.6.5 1.4.8 2.2.8.9 0 1.8-.4 2.4-1 .6-.6.9-1.5.9-2.3 0-.8-.4-1.6-1-2.2l-7.2-8.1c.1-.4.1-.7.1-1.1-.1-2.3-1.3-4.5-3.2-5.9z" fill="#4994d1" class="fill-1d75b9"></path>
  <path
    d="M124.3 104.6c-.7-1.7-1.9-3.2-3.4-4.4l-24-19.5c-1.3-1.1-3.2-1-4.4.2l-5.1-4.7c4.7-7.7 7.3-16.9 6.7-26.5C92.6 24.5 71 5.3 45.8 6.7 20.6 8.1 1.3 29.8 2.8 55c.2 2.6 2.4 4.6 5 4.5 2.6-.2 4.6-2.4 4.5-5-1.2-19.9 14.1-37 34-38.2 19.9-1.2 37 14.1 38.2 34 1.2 19.9-14.1 37-34 38.2-3.6.2-7.2-.1-10.6-.9-2.6-.6-5.1 1-5.8 3.5-.6 2.6 1 5.1 3.5 5.8 3.5.8 7.1 1.3 10.7 1.3.9 0 1.8 0 2.7-.1 11.5-.7 21.8-5.6 29.4-13.1l4.2 3.9-.2.2a3.24 3.24 0 0 0-.2 4.4l19.8 23.8c4.5 5.4 12.7 5.8 17.7.8 3.7-3.9 4.5-9.2 2.6-13.5z"
    fill="#ebebeb" class="fill-2d3e50"></path>
  <circle cx="24.1" cy="85.2" r="4.9" fill="#4994d1" class="fill-1d75b9"></circle>
  <circle cx="12.4" cy="71.7" transform="rotate(-81.767 12.37 71.671)" r="4.9" fill="#4994d1"
    class="fill-1d75b9"></circle>
  <text transform="translate(-31.174 -69.361)"></text></svg>
